<?xml version="1.0" encoding="UTF-8"?>
<svg xmlns="http://www.w3.org/2000/svg" viewBox="0 0 24 24" width="20" height="20" aria-hidden="true" focusable="false">
  <defs>
    <clipPath id="c"><circle cx="12" cy="12" r="12"/></clipPath>
  </defs>
  <g clip-path="url(#c)">
    <rect width="24" height="24" fill="#012169"/>
    <!-- White diagonals -->
    <g fill="#fff">
      <polygon points="0,0 3.2,0 24,16.8 24,20 20.8,20 0,3.2"/>
      <polygon points="24,0 20.8,0 0,16.8 0,20 3.2,20 24,3.2"/>
    </g>
    <!-- Red diagonals -->
    <g fill="#C8102E">
      <polygon points="0,0 1.6,0 24,18.4 24,20 22.4,20 0,1.6"/>
      <polygon points="24,0 22.4,0 0,18.4 0,20 1.6,20 24,1.6"/>
    </g>
    <!-- White cross -->
    <rect x="9" y="0" width="6" height="24" fill="#fff"/>
    <rect x="0" y="9" width="24" height="6" fill="#fff"/>
    <!-- Red cross -->
    <rect x="10.2" y="0" width="3.6" height="24" fill="#C8102E"/>
    <rect x="0" y="10.2" width="24" height="3.6" fill="#C8102E"/>
  </g>
</svg>
